<svg version="1.1" id="Layer_1" xmlns="http://www.w3.org/2000/svg" xmlns:xlink="http://www.w3.org/1999/xlink" x="0px" y="0px"
	 width="100%" viewBox="0 0 65 50" enable-background="new 0 0 65 50" xml:space="preserve">
<path fill="#F1F1F3" opacity="1.000000" stroke="none" 
	d="
M55.000000,51.000000 
	C37.048435,51.000000 19.096869,51.000000 1.072651,51.000000 
	C1.072651,34.426861 1.072651,17.853361 1.072651,1.000000 
	C20.353329,1.000000 39.708008,1.000000 59.483482,1.380514 
	C59.710583,3.365603 59.418449,4.965460 59.341270,6.575621 
	C59.089462,11.828835 59.204441,17.116457 58.649872,22.334679 
	C57.632145,31.910923 56.237507,41.447113 55.000000,51.000000 
M44.801422,29.950319 
	C43.373547,33.383354 41.945667,36.816391 40.360703,40.627113 
	C44.702057,40.627113 48.298111,40.627113 52.669937,40.627113 
	C53.090088,33.870483 53.928310,27.256052 53.691452,20.680344 
	C53.601910,18.194464 51.524143,14.515184 49.451721,13.715881 
	C47.311306,12.890357 43.734356,14.364869 41.418217,15.831696 
	C39.227318,17.219202 37.857224,19.902763 35.828548,22.379601 
	C35.601170,20.057299 35.414776,18.153576 35.210884,16.071175 
	C28.108215,16.071175 21.216589,16.071175 14.281384,16.071175 
	C14.281384,24.399813 14.281384,32.470959 14.281384,40.519375 
	C17.139950,40.519375 19.695885,40.519375 22.670946,40.519375 
	C22.670946,34.973263 22.670946,29.728464 22.670946,24.203609 
	C24.369438,24.312189 25.610680,24.391537 27.337442,24.501923 
	C27.337442,30.024624 27.337442,35.270561 27.337442,40.622490 
	C30.610296,40.622490 33.373318,40.622490 36.026920,40.622490 
	C38.943054,34.372196 38.816341,26.765396 46.306637,21.769114 
	C45.737206,25.043793 45.377869,27.110266 44.801422,29.950319 
z"/>
<path fill="#ECEDF0" opacity="1.000000" stroke="none" 
	d="
M55.482956,51.000000 
	C56.237507,41.447113 57.632145,31.910923 58.649872,22.334679 
	C59.204441,17.116457 59.089462,11.828835 59.341270,6.575621 
	C59.418449,4.965460 59.710583,3.365603 59.952141,1.380514 
	C61.985989,1.000000 63.971973,1.000000 65.952942,1.000024 
	C65.947922,17.666737 65.947922,34.333424 65.947922,51.000000 
	C62.585873,51.000000 59.275890,51.000000 55.482956,51.000000 
z"/>
<path fill="#09090A" opacity="1.000000" stroke="none" 
	d="
M44.909977,29.563530 
	C45.377869,27.110266 45.737206,25.043793 46.306637,21.769114 
	C38.816341,26.765396 38.943054,34.372196 36.026920,40.622490 
	C33.373318,40.622490 30.610296,40.622490 27.337442,40.622490 
	C27.337442,35.270561 27.337442,30.024624 27.337442,24.501923 
	C25.610680,24.391537 24.369438,24.312189 22.670946,24.203609 
	C22.670946,29.728464 22.670946,34.973263 22.670946,40.519375 
	C19.695885,40.519375 17.139950,40.519375 14.281384,40.519375 
	C14.281384,32.470959 14.281384,24.399813 14.281384,16.071175 
	C21.216589,16.071175 28.108215,16.071175 35.210884,16.071175 
	C35.414776,18.153576 35.601170,20.057299 35.828548,22.379601 
	C37.857224,19.902763 39.227318,17.219202 41.418217,15.831696 
	C43.734356,14.364869 47.311306,12.890357 49.451721,13.715881 
	C51.524143,14.515184 53.601910,18.194464 53.691452,20.680344 
	C53.928310,27.256052 53.090088,33.870483 52.669937,40.627113 
	C48.298111,40.627113 44.702057,40.627113 40.360703,40.627113 
	C41.945667,36.816391 43.373547,33.383354 44.909977,29.563530 
z"/>
</svg>